<svg xmlns="http://www.w3.org/2000/svg" width="17.507" height="17.507" viewBox="0 0 17.507 17.507"><defs><style>.a{fill:#e84549;}.b{fill:#fff;}</style></defs><circle class="a" cx="8.079" cy="8.079" r="8.079" transform="translate(0.674 0.674)"/><path class="a" d="M8.754,17.517A8.753,8.753,0,0,1,2.561,2.571h0A8.758,8.758,0,1,1,8.754,17.517ZM3.52,3.53a7.4,7.4,0,1,0,10.467,0,7.411,7.411,0,0,0-10.467,0Z" transform="translate(0 -0.011)"/><g transform="translate(5.719 5.633)"><path class="b" d="M167.95,170.888a.678.678,0,0,1-.48-1.158l4.8-4.8a.678.678,0,0,1,.959.959l-4.8,4.8A.678.678,0,0,1,167.95,170.888Z" transform="translate(-167.271 -164.735)"/><path class="b" d="M172.726,170.888a.676.676,0,0,1-.48-.2l-4.8-4.8a.678.678,0,0,1,.959-.959l4.8,4.8a.678.678,0,0,1-.48,1.158Z" transform="translate(-167.251 -164.735)"/></g></svg>