<svg xmlns="http://www.w3.org/2000/svg" width="18" height="18" viewBox="0 0 18 18"><defs><style>.a{fill:#66b662;}.b{fill:#fff;}</style></defs><circle class="a" cx="8.303" cy="8.303" r="8.303" transform="translate(0.697 0.697)"/><path class="a" d="M9,18a9,9,0,1,1,9-9A9.01,9.01,0,0,1,9,18ZM9,1.394A7.606,7.606,0,1,0,16.606,9,7.614,7.614,0,0,0,9,1.394Z"/><path class="b" d="M135.336,168.447a.7.7,0,0,1-.5-.208l-2.572-2.614a.7.7,0,1,1,.994-.977l2.055,2.089,4.252-4.683a.7.7,0,1,1,1.032.938l-4.747,5.228a.7.7,0,0,1-.5.229Z" transform="translate(-127.424 -156.136)"/></svg>