<svg xmlns="http://www.w3.org/2000/svg" width="19.865" height="19.865" viewBox="0 0 19.865 19.865"><defs><style>.a{fill:#1c99d6;}</style></defs><path class="a" d="M7.656,6.622H1.448A1.45,1.45,0,0,1,0,5.173V1.448A1.45,1.45,0,0,1,1.448,0H7.656A1.45,1.45,0,0,1,9.1,1.448V5.173A1.45,1.45,0,0,1,7.656,6.622ZM1.448,1.242a.207.207,0,0,0-.207.207V5.173a.207.207,0,0,0,.207.207H7.656a.207.207,0,0,0,.207-.207V1.448a.207.207,0,0,0-.207-.207Zm0,0"/><path class="a" d="M7.656,224.92H1.448A1.45,1.45,0,0,1,0,223.472v-8.691a1.45,1.45,0,0,1,1.448-1.449H7.656A1.45,1.45,0,0,1,9.1,214.781v8.691A1.45,1.45,0,0,1,7.656,224.92ZM1.448,214.574a.207.207,0,0,0-.207.207v8.691a.207.207,0,0,0,.207.207H7.656a.207.207,0,0,0,.207-.207v-8.691a.207.207,0,0,0-.207-.207Zm0,0" transform="translate(0 -205.055)"/><path class="a" d="M284.989,347.954h-6.208a1.45,1.45,0,0,1-1.449-1.448v-3.725a1.45,1.45,0,0,1,1.449-1.449h6.208a1.45,1.45,0,0,1,1.448,1.449v3.725A1.45,1.45,0,0,1,284.989,347.954Zm-6.208-5.38a.207.207,0,0,0-.207.207v3.725a.207.207,0,0,0,.207.207h6.208a.207.207,0,0,0,.207-.207v-3.725a.207.207,0,0,0-.207-.207Zm0,0" transform="translate(-266.572 -328.089)"/><path class="a" d="M284.989,11.588h-6.208a1.45,1.45,0,0,1-1.449-1.449V1.448A1.45,1.45,0,0,1,278.781,0h6.208a1.45,1.45,0,0,1,1.448,1.448v8.691A1.45,1.45,0,0,1,284.989,11.588ZM278.781,1.242a.207.207,0,0,0-.207.207v8.691a.207.207,0,0,0,.207.207h6.208a.207.207,0,0,0,.207-.207V1.448a.207.207,0,0,0-.207-.207Zm0,0" transform="translate(-266.572)"/></svg>