<svg xmlns="http://www.w3.org/2000/svg" width="18.074" height="18.018" viewBox="0 0 18.074 18.018"><defs><style>.a{fill:#79adcb;stroke:#082d43;stroke-width:0.3px;}</style></defs><g transform="translate(-319.85 -200.639)"><path class="a" d="M12.088,51.981H2.59A2.593,2.593,0,0,1,0,49.391V38.166a2.593,2.593,0,0,1,2.59-2.59H7.607a.863.863,0,0,1,0,1.727H2.59a.865.865,0,0,0-.863.863V49.391a.864.864,0,0,0,.863.863h9.5a.864.864,0,0,0,.863-.863V46.68a.863.863,0,1,1,1.727,0v2.711A2.593,2.593,0,0,1,12.088,51.981Z" transform="translate(320 166.525)"/><path class="a" d="M-1956.137-201.173a.864.864,0,0,1-.864-.864v-1.933a4.5,4.5,0,0,1,1.323-3.2l4.39-4.389a.879.879,0,0,1,.075-.086.866.866,0,0,1,.087-.076l.055-.055-.018-.019,1.252-1.243a3.311,3.311,0,0,1,4.673,0,3.3,3.3,0,0,1,.965,2.341,3.3,3.3,0,0,1-.964,2.36L-1951-202.5a4.5,4.5,0,0,1-3.2,1.323Zm1.681-4.777a2.784,2.784,0,0,0-.818,1.979v1.071h1.071a2.793,2.793,0,0,0,1.981-.817l3.858-3.858-2.233-2.233Zm7.3-2.859.771-.771a1.574,1.574,0,0,0,.461-1.11,1.576,1.576,0,0,0-.461-1.1,1.583,1.583,0,0,0-2.233,0l-.758.758Z" transform="translate(2281.974 415)"/></g></svg>