<svg xmlns="http://www.w3.org/2000/svg" width="17.919" height="23.892" viewBox="0 0 17.919 23.892"><defs><style>.a{fill:#79adcb;}</style></defs><g transform="translate(0)"><path class="a" d="M81.422,8.96H79.928V6.969a6.969,6.969,0,1,0-13.937,0V8.96H64.5a.5.5,0,0,0-.5.5V21.9a1.993,1.993,0,0,0,1.991,1.991H79.928A1.993,1.993,0,0,0,81.919,21.9V9.457A.5.5,0,0,0,81.422,8.96Zm-6.971,10.4a.5.5,0,0,1-.495.553H71.964a.5.5,0,0,1-.495-.553l.314-2.824a1.969,1.969,0,0,1-.815-1.6,1.991,1.991,0,0,1,3.982,0,1.969,1.969,0,0,1-.815,1.6Zm2.492-10.4H68.978V6.969a3.982,3.982,0,0,1,7.964,0Z" transform="translate(-64)"/></g></svg>