<svg xmlns="http://www.w3.org/2000/svg" width="23.014" height="21" viewBox="0 0 23.014 21"><defs><style>.a{fill:#fff;}</style></defs><g transform="translate(0 -22.404)"><g transform="translate(19.204 30.493)"><path class="a" d="M430.75,204.221l-2.462-1.736a.675.675,0,0,0-1.063.551v3.472a.675.675,0,0,0,1.063.551l2.462-1.736A.675.675,0,0,0,430.75,204.221Z" transform="translate(-427.225 -202.361)"/></g><g transform="translate(0 22.404)"><g transform="translate(0 0)"><path class="a" d="M19.349,37.233a.674.674,0,0,0-.921.246,9.152,9.152,0,1,1,0-9.151.674.674,0,0,0,1.167-.675,10.5,10.5,0,1,0,0,10.5A.674.674,0,0,0,19.349,37.233Z" transform="translate(0 -22.404)"/></g></g><g transform="translate(6.706 32.23)"><path class="a" d="M149.866,241a.674.674,0,0,0,0,1.348h10.475V241Z" transform="translate(-149.192 -241.001)"/></g></g></svg>