<svg xmlns="http://www.w3.org/2000/svg" width="323.879" height="106.521" viewBox="0 0 323.879 106.521"><defs><style>.a{fill:#0e273a;stroke:#255a7e;}.b{fill:#99a0a3;}.c{fill:#eb1f27;fill-rule:evenodd;}.d{stroke:none;}.e{fill:none;}</style></defs><g transform="translate(-1596.121 -58)"><g class="a" transform="translate(1596.121 58)"><rect class="d" width="323.879" height="106.521"/><rect class="e" x="0.5" y="0.5" width="322.879" height="105.521"/></g><g transform="translate(1628.088 89)"><path class="b" d="M34.419,8.835A21.918,21.918,0,1,1,12.5,30.752,21.917,21.917,0,0,1,34.419,8.835ZM54.455,30.752A20.026,20.026,0,1,0,43.969,48.369,20.037,20.037,0,0,0,54.455,30.752Z" transform="translate(-12.5 -8.835)"/><path class="b" d="M51.856,29.08a16.512,16.512,0,0,1,5.731,7.246,16.536,16.536,0,0,1,.665,10.347,16.006,16.006,0,0,1-.667,2.008,16.5,16.5,0,0,1-5.729,7.243c-.088.062-.178.125-.27.187H49.85v-7.43H34.8v7.43H33.06c-.092-.061-.182-.125-.27-.187a16.5,16.5,0,0,1-5.729-7.243,15.937,15.937,0,0,1-.667-2.008,16.571,16.571,0,0,1,0-8.341,16.21,16.21,0,0,1,.665-2.006A16.512,16.512,0,0,1,32.79,29.08c.185-.132.373-.259.564-.382H34.8v7.628H49.85V28.7h1.442C51.483,28.821,51.671,28.948,51.856,29.08Zm-22.6,19.6A14.482,14.482,0,0,0,32.79,53.37V31.637a14.488,14.488,0,0,0-3.54,4.689,14.073,14.073,0,0,0-.771,2.006,14.512,14.512,0,0,0,0,8.341A13.867,13.867,0,0,0,29.252,48.681ZM56.78,42.5a14.391,14.391,0,0,0-.613-4.17,14.07,14.07,0,0,0-.77-2.006,14.489,14.489,0,0,0-3.541-4.689V53.37a14.477,14.477,0,0,0,3.538-4.689,13.819,13.819,0,0,0,.773-2.008A14.4,14.4,0,0,0,56.78,42.5Zm-6.93,4.171V38.332H34.8v8.341Z" transform="translate(-20.404 -20.586)"/><path class="c" d="M201.753,47.529c0,5.033-4.641,8.345-9.326,8.345H177.149V25.986h14.008c5.385,0,9.281,2.692,9.281,8.211a6.481,6.481,0,0,1-4.114,6.136,7.372,7.372,0,0,1,5.429,7.2m-8.932-12.492a2.689,2.689,0,0,0-2.846-2.827H184.5v5.564h5.341a2.8,2.8,0,0,0,2.978-2.737m.963,11.654c0-1.721-1.27-2.913-3.94-2.913H184.5v5.871h5.473c2.233,0,3.808-.794,3.808-2.958m38.192-5.784c0,8.785-5.036,15.671-13.746,15.671-8.668,0-13.747-6.887-13.747-15.671,0-8.742,5.077-15.673,13.746-15.673,8.712,0,13.747,6.933,13.747,15.673m-7.356,0c0-4.681-2.143-8.477-6.389-8.477s-6.348,3.8-6.348,8.477c0,4.724,2.1,8.52,6.348,8.52s6.389-3.8,6.389-8.52m33.026,5.916c0,6.578-5.954,9.757-11.556,9.757-6.48,0-9.806-2.473-12.432-5.607l4.77-4.68A9.4,9.4,0,0,0,246,50.135c2.407,0,4.026-1.192,4.026-2.959,0-1.9-1.431-2.488-5.341-3.311l-1.05-.22c-4.71-.99-8.581-3.664-8.581-9.006,0-5.873,4.771-9.4,11.074-9.4a13.973,13.973,0,0,1,10.9,4.68l-4.642,4.592a8.533,8.533,0,0,0-6.129-2.783c-1.707,0-3.632.8-3.632,2.783,0,1.809,2.006,2.466,4.551,3l1.051.22c4.263.894,9.413,2.208,9.413,9.094m28.43,3.267c-3.063,4.415-5.907,6.49-11.818,6.49-8.407,0-13.835-6.976-13.835-15.85,0-8.431,4.9-15.452,13.921-15.452,4.945,0,8.492,1.943,11.516,6.491l-6.043,4.017a5.821,5.821,0,0,0-5.429-3.355c-3.324,0-6.523,2.974-6.523,8.3,0,5.969,3.46,8.7,6.743,8.7,2.845,0,4.157-1.412,5.384-3.443l6.083,4.106m28.036,5.784h-7.879V44.087h-9.061V55.874h-7.836V25.986h7.836V36.978h9.061V25.986h7.879Z" transform="translate(-109.903 -18.659)"/></g></g></svg>