<svg xmlns="http://www.w3.org/2000/svg" xmlns:xlink="http://www.w3.org/1999/xlink" width="811.094" height="297" viewBox="0 0 811.094 297"><defs><style>.a,.g{mix-blend-mode:lighten;isolation:isolate;}.a{fill:url(#a);}.b{fill:rgba(0,167,255,0.05);stroke:#184f7c;}.c{fill:#0e273a;stroke:#255a7e;}.d{fill:#99a0a3;}.e{fill:#eb1f27;fill-rule:evenodd;}.f{fill:#fff;}.g{fill:url(#b);}.h{stroke:none;}.i{fill:none;}</style><radialGradient id="a" cx="0.556" cy="0.5" r="0.465" gradientTransform="translate(0 0.288) scale(1 0.425)" gradientUnits="objectBoundingBox"><stop offset="0" stop-color="#767676" stop-opacity="0.4"/><stop offset="1" stop-color="#0f2c44" stop-opacity="0"/></radialGradient><radialGradient id="b" cx="0.444" cy="0.5" r="0.496" gradientTransform="matrix(-1, 0, 0, 0.621, 0.887, 0.19)" gradientUnits="objectBoundingBox"><stop offset="0" stop-color="#0096ff"/><stop offset="1" stop-color="#132d3f" stop-opacity="0"/></radialGradient></defs><g transform="translate(-1111 -574)"><rect class="a" width="470" height="122" transform="translate(1111 662)"/><g class="b" transform="translate(1348 580.51)"><rect class="h" width="574.094" height="284.312"/><rect class="i" x="0.5" y="0.5" width="573.094" height="283.312"/></g><g class="c" transform="translate(1377.522 610.126)"><rect class="h" width="544.478" height="225.081"/><rect class="i" x="0.5" y="0.5" width="543.478" height="224.081"/></g><g transform="translate(1429.505 666.502)"><g transform="translate(0 0)"><path class="d" d="M50.995,8.835A38.493,38.493,0,1,1,12.5,47.326,38.492,38.492,0,0,1,50.995,8.835ZM86.182,47.326a35.17,35.17,0,1,0-18.415,30.94A35.189,35.189,0,0,0,86.182,47.326Z" transform="translate(-12.5 -8.835)"/><path class="d" d="M71.514,29.369A29,29,0,0,1,81.579,42.094a29.041,29.041,0,0,1,1.168,18.172,28.112,28.112,0,0,1-1.172,3.527A28.979,28.979,0,0,1,71.514,76.514c-.154.108-.312.22-.474.328H67.991V63.793H41.554V76.842H38.5c-.161-.108-.32-.22-.474-.328A28.984,28.984,0,0,1,27.969,63.793,27.989,27.989,0,0,1,26.8,60.266a29.1,29.1,0,0,1,0-14.649,28.472,28.472,0,0,1,1.168-3.523A29,29,0,0,1,38.03,29.369c.324-.231.656-.455.991-.671h2.533v13.4H67.991V28.7h2.533C70.859,28.914,71.19,29.138,71.514,29.369Zm-39.7,34.424a25.434,25.434,0,0,0,6.214,8.234V33.86a25.445,25.445,0,0,0-6.217,8.234,24.717,24.717,0,0,0-1.354,3.523,25.486,25.486,0,0,0,0,14.649A24.354,24.354,0,0,0,31.817,63.793ZM80.161,52.941a25.274,25.274,0,0,0-1.076-7.324,24.714,24.714,0,0,0-1.353-3.523,25.447,25.447,0,0,0-6.218-8.234V72.027a25.424,25.424,0,0,0,6.214-8.234,24.272,24.272,0,0,0,1.357-3.527A25.282,25.282,0,0,0,80.161,52.941Zm-12.17,7.325V45.617H41.554V60.266Z" transform="translate(-16.277 -14.451)"/></g><path class="e" d="M220.359,64.389c0,8.839-8.151,14.655-16.378,14.655H177.149V26.555h24.6c9.458,0,16.3,4.728,16.3,14.421a11.382,11.382,0,0,1-7.225,10.776c0,.078,9.534,2.25,9.534,12.638M204.672,42.45a4.722,4.722,0,0,0-5-4.965h-9.612v9.771h9.38a4.924,4.924,0,0,0,5.23-4.806m1.692,20.467c0-3.023-2.23-5.116-6.92-5.116h-9.379V68.112h9.612c3.922,0,6.688-1.394,6.688-5.2M273.439,52.76c0,15.428-8.844,27.523-24.141,27.523-15.224,0-24.144-12.095-24.144-27.523,0-15.353,8.917-27.526,24.142-27.526,15.3,0,24.144,12.175,24.144,27.526m-12.918,0c0-8.221-3.763-14.888-11.22-14.888s-11.148,6.667-11.148,14.888c0,8.3,3.69,14.963,11.148,14.963s11.22-6.667,11.22-14.963m58,10.39c0,11.552-10.456,17.136-20.3,17.136-11.38,0-17.221-4.344-21.833-9.848l8.377-8.22a16.51,16.51,0,0,0,13.3,6.748c4.228,0,7.071-2.094,7.071-5.2,0-3.332-2.513-4.37-9.379-5.814l-1.844-.386c-8.271-1.738-15.069-6.435-15.069-15.817,0-10.314,8.379-16.517,19.449-16.517,9.382,0,15.453,4.033,19.146,8.22l-8.153,8.064a14.987,14.987,0,0,0-10.763-4.887c-3,0-6.379,1.4-6.379,4.887,0,3.177,3.523,4.331,7.993,5.273l1.846.386c7.488,1.571,16.532,3.877,16.532,15.972m49.929,5.738c-5.379,7.753-10.375,11.4-20.754,11.4-14.764,0-24.3-12.252-24.3-27.836,0-14.807,8.612-27.137,24.449-27.137,8.685,0,14.914,3.412,20.224,11.4l-10.612,7.054c-2.154-3.723-4.92-5.892-9.534-5.892-5.839,0-11.456,5.222-11.456,14.575,0,10.483,6.077,15.274,11.842,15.274,5,0,7.3-2.48,9.456-6.046l10.682,7.211m49.238,10.157H403.852v-20.7H387.939v20.7H374.177V26.555h13.762v19.3h15.913v-19.3h13.837Z" transform="translate(-58.661 -14.362)"/><g transform="translate(118.488 88.796)"><rect class="f" width="2.168" height="20.155" transform="translate(0.097 1.491)"/><path class="f" d="M241.661,397.5l-.109.052-.074-.1v-2.18h-2.17V409.97h2.17v-9.009a3.812,3.812,0,0,1,3.967-4.082c2.289,0,3.311,1.171,3.311,3.8v9.294h2.169v-9.125c0-4.812-2.64-5.822-4.854-5.822a4.71,4.71,0,0,0-4.41,2.478" transform="translate(-231.841 -388.323)"/><path class="f" d="M280.274,395.561,276.4,407.987l-.091.068-.093-.068-3.963-12.426h-2.355c.086.252,4.985,14.563,5.028,14.692h2.65c.044-.131,4.859-14.441,4.945-14.692Z" transform="translate(-247.872 -388.605)"/><path class="f" d="M303.275,401.251l-.022-.077c.417-2.783,1.988-4.381,4.307-4.381,2.564,0,3.86,1.4,4.082,4.386l-.026.074-.072.032h-8.2Zm-2.363,1.417c0,4.522,2.787,7.558,6.932,7.558a6.143,6.143,0,0,0,5.758-3.253l-1.741-.988a4.2,4.2,0,0,1-3.987,2.47c-2.964,0-4.591-1.852-4.709-5.358v0l.028-.067.069-.03h10.6v-.672c0-4.573-2.357-7.3-6.306-7.3-3.913,0-6.648,3.142-6.648,7.644" transform="translate(-264.13 -388.323)"/><path class="f" d="M338.789,397.5l-.109.052-.073-.1v-2.18h-2.17V409.97h2.17v-9.009a3.812,3.812,0,0,1,3.967-4.082c2.291,0,3.313,1.171,3.313,3.8v9.294h2.168v-9.125c0-4.812-2.641-5.822-4.856-5.822a4.71,4.71,0,0,0-4.41,2.478" transform="translate(-282.75 -388.323)"/><path class="f" d="M370.292,386.809V390.6l-.1.1h-2.18v1.8h2.18l.1.1V402.1c0,2.188,1.469,3.546,3.83,3.546a4.473,4.473,0,0,0,2.947-.984l-.817-1.455a3.2,3.2,0,0,1-2.017.64c-1.194,0-1.775-.719-1.775-2.2v-9.051l.1-.1h3.659v-1.8h-3.659l-.1-.1v-4.317l-2.169.523" transform="translate(-299.302 -383.743)"/><path class="f" d="M393.705,401.251l-.022-.077c.417-2.783,1.988-4.381,4.307-4.381,2.562,0,3.86,1.4,4.081,4.386l-.026.074-.07.032h-8.2Zm-2.363,1.417c0,4.522,2.787,7.558,6.932,7.558a6.143,6.143,0,0,0,5.758-3.253l-1.741-.988a4.2,4.2,0,0,1-3.987,2.47c-2.964,0-4.591-1.852-4.709-5.358v0l.028-.067.069-.03h10.6v-.672c0-4.573-2.357-7.3-6.306-7.3-3.914,0-6.648,3.142-6.648,7.644" transform="translate(-311.528 -388.323)"/><path class="f" d="M427.686,395.711c0-3.659,1.644-5.845,4.395-5.845,2.965,0,4.736,2.186,4.736,5.845,0,3.7-1.737,5.818-4.764,5.818-2.9,0-4.367-1.956-4.367-5.818m9.045-13.9v8.9l-.071.093-.109-.044a5.627,5.627,0,0,0-4.809-2.657c-3.832,0-6.308,2.946-6.308,7.5,0,4.679,2.476,7.7,6.308,7.7a5.488,5.488,0,0,0,4.809-2.6l.109-.044.071.093v2.294H438.9V381.806Z" transform="translate(-329.396 -381.395)"/><path class="f" d="M475.416,385.832v2.077l-.1.1h-2.037v1.8h2.037l.1.1v12.8h2.169V389.9l.1-.1H481v-1.8h-3.32l-.1-.1v-2.334c0-1.639.855-2.657,2.232-2.657a3.9,3.9,0,0,1,1.934.5l.537-1.632a5.148,5.148,0,0,0-2.556-.64c-2.741,0-4.315,1.707-4.315,4.684" transform="translate(-354.476 -381.05)"/><path class="f" d="M495.991,402.638c0-3.605,1.793-5.845,4.679-5.845,2.842,0,4.679,2.294,4.679,5.845,0,3.534-1.836,5.818-4.679,5.818-2.886,0-4.679-2.23-4.679-5.818m-2.254,0c0,4.4,2.9,7.588,6.9,7.588,4.032,0,6.96-3.2,6.96-7.616,0-4.4-2.916-7.588-6.933-7.588s-6.932,3.2-6.932,7.616" transform="translate(-365.198 -388.322)"/><path class="f" d="M533.589,397.618l-.11.05-.074-.094v-2.3h-2.169v14.692h2.169V401.9c0-3.643,2-4.935,3.711-4.935a3.264,3.264,0,0,1,1.779.421l.878-1.811a4.8,4.8,0,0,0-2.373-.551,4.3,4.3,0,0,0-3.811,2.594" transform="translate(-384.853 -388.323)"/><rect class="f" width="2.196" height="21.237" transform="translate(162.011 0.41)"/><path class="f" d="M579.4,402.76h2.168V388.068H579.4Zm-.427-20.025a1.469,1.469,0,1,0,1.468-1.468,1.488,1.488,0,0,0-1.468,1.468" transform="translate(-409.873 -381.113)"/><path class="f" d="M594.323,385.832v2.077l-.1.1h-2.037v1.8h2.037l.1.1v12.8h2.168V389.9l.1-.1h3.317v-1.8h-3.317l-.1-.1v-2.334c0-1.639.855-2.657,2.232-2.657a3.9,3.9,0,0,1,1.934.5l.536-1.632a5.145,5.145,0,0,0-2.556-.64c-2.741,0-4.315,1.707-4.315,4.684" transform="translate(-416.801 -381.05)"/><path class="f" d="M614.288,401.251l-.022-.077c.417-2.783,1.988-4.381,4.307-4.381,2.562,0,3.86,1.4,4.08,4.386l-.026.074-.069.032h-8.2Zm-2.363,1.417c0,4.522,2.787,7.558,6.932,7.558a6.141,6.141,0,0,0,5.758-3.253l-1.741-.988a4.2,4.2,0,0,1-3.987,2.47c-2.961,0-4.589-1.852-4.709-5.358v0l.028-.067.07-.03h10.6v-.672c0-4.573-2.357-7.3-6.307-7.3-3.913,0-6.648,3.142-6.648,7.644" transform="translate(-427.146 -388.323)"/><rect class="f" width="2.363" height="20.35" transform="translate(0 1.394)"/><path class="f" d="M239.106,395.075h2.363v2.278a4.777,4.777,0,0,1,4.5-2.534c2.818,0,4.953,1.594,4.953,5.919v9.222h-2.364v-9.391c0-2.62-1-3.7-3.215-3.7a3.715,3.715,0,0,0-3.87,3.985v9.107h-2.363Z" transform="translate(-231.735 -388.215)"/><path class="f" d="M269.609,395.357h2.562l3.985,12.494,3.9-12.494H282.5l-5.009,14.885H274.7Z" transform="translate(-247.723 -388.498)"/><path class="f" d="M303.241,401.08h8.2c-.229-3.073-1.594-4.3-3.985-4.3-2.333,0-3.814,1.652-4.213,4.3m-2.532,1.481c0-4.553,2.76-7.742,6.745-7.742,3.357,0,6.4,2.077,6.4,7.4v.769h-10.7c.115,3.387,1.624,5.265,4.611,5.265a4.16,4.16,0,0,0,3.957-2.5l1.906,1.081a6.267,6.267,0,0,1-5.891,3.387c-4.126,0-7.03-3.045-7.03-7.656" transform="translate(-264.024 -388.216)"/><path class="f" d="M336.234,395.075H338.6v2.278a4.777,4.777,0,0,1,4.5-2.534c2.819,0,4.953,1.594,4.953,5.919v9.222h-2.363v-9.391c0-2.62-1-3.7-3.216-3.7a3.715,3.715,0,0,0-3.87,3.985v9.107h-2.363Z" transform="translate(-282.644 -388.215)"/><path class="f" d="M367.813,390.466h2.277V386.6l2.361-.571v4.44h3.756v1.991h-3.756v9.051c0,1.4.513,2.107,1.68,2.107a3.184,3.184,0,0,0,2.049-.684l.91,1.622a4.6,4.6,0,0,1-3.073,1.053c-2.534,0-3.928-1.509-3.928-3.643v-9.507h-2.277Z" transform="translate(-299.196 -383.607)"/><path class="f" d="M393.673,401.08h8.195c-.227-3.073-1.592-4.3-3.983-4.3-2.333,0-3.814,1.652-4.211,4.3m-2.534,1.481c0-4.553,2.76-7.742,6.745-7.742,3.359,0,6.4,2.077,6.4,7.4v.769h-10.7c.115,3.387,1.624,5.265,4.611,5.265a4.16,4.16,0,0,0,3.957-2.5l1.906,1.081a6.267,6.267,0,0,1-5.891,3.387c-4.126,0-7.03-3.045-7.03-7.656" transform="translate(-311.422 -388.216)"/><path class="f" d="M436.613,395.6c0-3.983-2.079-5.748-4.639-5.748-2.476,0-4.3,1.848-4.3,5.748,0,3.756,1.367,5.72,4.269,5.72,2.705,0,4.669-1.735,4.669-5.72m-11.384-.113c0-4.838,2.733-7.6,6.4-7.6a5.705,5.705,0,0,1,4.9,2.7V381.6h2.361v21.431h-2.361v-2.391a5.6,5.6,0,0,1-4.9,2.647c-3.9,0-6.4-3.047-6.4-7.8" transform="translate(-329.29 -381.288)"/><path class="f" d="M473.079,387.8h2.135v-2.077c0-3.017,1.594-4.782,4.41-4.782a5.21,5.21,0,0,1,2.675.684l-.6,1.821a4,4,0,0,0-1.993-.541c-1.393,0-2.135,1.054-2.135,2.562V387.8h3.415v1.991h-3.415v12.893h-2.361V389.793h-2.135Z" transform="translate(-354.37 -380.943)"/><path class="f" d="M505.144,402.531c0-3.5-1.765-5.748-4.581-5.748-2.846,0-4.583,2.248-4.583,5.748,0,3.472,1.707,5.72,4.583,5.72,2.846,0,4.581-2.275,4.581-5.72m-11.611,0c0-4.553,3.017-7.713,7.03-7.713s7.03,3.132,7.03,7.686c0,4.581-3.017,7.712-7.059,7.712s-7-3.244-7-7.684" transform="translate(-365.091 -388.215)"/><path class="f" d="M531.032,395.075H533.4v2.391a4.4,4.4,0,0,1,3.9-2.648,4.883,4.883,0,0,1,2.506.6l-.968,1.992a3.214,3.214,0,0,0-1.823-.455c-1.594,0-3.614,1.167-3.614,4.838v8.168h-2.363Z" transform="translate(-384.746 -388.215)"/><rect class="f" width="2.391" height="21.43" transform="translate(161.916 0.315)"/><path class="f" d="M579.2,387.865h2.361V402.75H579.2Zm-.427-5.237a1.565,1.565,0,1,1,1.566,1.564,1.579,1.579,0,0,1-1.566-1.564" transform="translate(-409.767 -381.005)"/><path class="f" d="M591.985,387.8h2.135v-2.077c0-3.017,1.594-4.782,4.412-4.782a5.221,5.221,0,0,1,2.675.684l-.6,1.821a3.989,3.989,0,0,0-1.991-.541c-1.4,0-2.135,1.054-2.135,2.562V387.8H599.9v1.991h-3.415v12.893H594.12V389.793h-2.135Z" transform="translate(-416.694 -380.943)"/><path class="f" d="M614.255,401.08h8.2c-.228-3.073-1.594-4.3-3.985-4.3-2.333,0-3.814,1.652-4.212,4.3m-2.534,1.481c0-4.553,2.761-7.742,6.746-7.742,3.359,0,6.4,2.077,6.4,7.4v.769h-10.7c.113,3.387,1.622,5.265,4.609,5.265a4.16,4.16,0,0,0,3.957-2.5l1.906,1.081a6.268,6.268,0,0,1-5.891,3.387c-4.126,0-7.03-3.045-7.03-7.656" transform="translate(-427.039 -388.216)"/></g></g><rect class="g" width="105" height="13" transform="translate(1582 574)"/><rect class="g" width="105" height="13" transform="translate(1577 858)"/></g></svg>