<svg xmlns="http://www.w3.org/2000/svg" width="21.713" height="19" viewBox="0 0 21.713 19"><defs><style>.a{fill:#007bc0;}</style></defs><g transform="translate(0 -0.999)"><path class="a" d="M2.94,20a.677.677,0,0,1-.454-.174L.224,17.789A.678.678,0,0,1,.2,16.805l1.782-1.782L.2,13.241a.679.679,0,0,1,0-.96L1.981,10.5.2,8.717a.679.679,0,0,1,0-.96L1.981,5.975.2,4.194A.677.677,0,0,1,0,3.7a.684.684,0,0,1,.224-.487L2.486,1.174a.679.679,0,0,1,.908,1.01L1.664,3.74,3.42,5.5a.679.679,0,0,1,0,.96L1.638,8.238,3.421,10.02a.679.679,0,0,1,0,.96L1.638,12.761l1.782,1.782a.679.679,0,0,1,0,.96L1.665,17.259,3.4,18.816A.678.678,0,0,1,2.94,20Z" transform="translate(0 0)"/><path class="a" d="M20.678,20a.679.679,0,0,1-.454-1.183l1.731-1.557L20.2,15.5a.679.679,0,0,1,0-.96l1.782-1.782L20.2,10.978a.679.679,0,0,1,0-.96l1.781-1.78L20.2,6.455a.679.679,0,0,1,0-.96l1.756-1.756L20.223,2.182a.679.679,0,0,1,.908-1.01l2.262,2.036a.678.678,0,0,1,.026.985L21.637,5.976,23.42,7.758a.679.679,0,0,1,0,.96L21.637,10.5l1.782,1.782a.679.679,0,0,1,0,.96l-1.782,1.782,1.782,1.782a.678.678,0,0,1-.025.984l-2.262,2.036A.684.684,0,0,1,20.678,20Z" transform="translate(-1.906 0)"/><path class="a" d="M14.416,18.285H8.536A2.038,2.038,0,0,1,6.5,16.249V4.036A2.038,2.038,0,0,1,8.536,2h5.881a2.038,2.038,0,0,1,2.036,2.036V16.249A2.038,2.038,0,0,1,14.416,18.285ZM8.536,3.357a.679.679,0,0,0-.679.679V16.249a.679.679,0,0,0,.679.679h5.881a.679.679,0,0,0,.679-.679V4.036a.679.679,0,0,0-.679-.679Z" transform="translate(-0.619 -0.095)"/><path class="a" d="M15.773,16.857H7.179a.679.679,0,1,1,0-1.357h8.595a.679.679,0,1,1,0,1.357Z" transform="translate(-0.619 -1.382)"/></g></svg>