<svg xmlns="http://www.w3.org/2000/svg" width="16.048" height="17.507" viewBox="0 0 16.048 17.507"><defs><style>.a{fill:#79adcb;}</style></defs><g transform="translate(-21.334)"><g transform="translate(21.334)"><path class="a" d="M74.942,99.923H66.188A2.191,2.191,0,0,1,64,97.734V86.063a.73.73,0,0,1,.729-.729H76.4a.729.729,0,0,1,.729.729V97.734A2.191,2.191,0,0,1,74.942,99.923Zm-9.483-13.13V97.734a.73.73,0,0,0,.729.729h8.753a.73.73,0,0,0,.729-.729V86.793Z" transform="translate(-62.541 -82.416)"/><path class="a" d="M155.9,4.377h-5.835a.73.73,0,0,1-.729-.729V.729A.73.73,0,0,1,150.063,0H155.9a.729.729,0,0,1,.729.729V3.647A.729.729,0,0,1,155.9,4.377Zm-5.106-1.459h4.377V1.459h-4.377Z" transform="translate(-144.957)"/><path class="a" d="M36.652,86.793H22.063a.729.729,0,1,1,0-1.459H36.652a.729.729,0,1,1,0,1.459Z" transform="translate(-21.334 -82.416)"/><path class="a" d="M171.4,178.691a.729.729,0,0,1-.729-.729V171.4a.729.729,0,0,1,1.459,0v6.565A.729.729,0,0,1,171.4,178.691Z" transform="translate(-165.561 -164.831)"/><path class="a" d="M299.4,178.691a.729.729,0,0,1-.729-.729V171.4a.729.729,0,0,1,1.459,0v6.565A.729.729,0,0,1,299.4,178.691Z" transform="translate(-289.184 -164.831)"/></g></g></svg>